<?xml version="1.0" encoding="utf-8"?>
<!-- Generator: Adobe Illustrator 23.1.1, SVG Export Plug-In . SVG Version: 6.00 Build 0)  -->
<svg version="1.1" id="Layer_1" xmlns="http://www.w3.org/2000/svg" xmlns:xlink="http://www.w3.org/1999/xlink" x="0px" y="0px"
	 viewBox="0 0 440.9 265.2" style="enable-background:new 0 0 440.9 265.2;" xml:space="preserve">
<style type="text/css">
	.st0{fill:none;stroke:#000000;stroke-width:0.5669;stroke-miterlimit:22.9256;}
	.st1{fill-rule:evenodd;clip-rule:evenodd;fill:#A6CE39;}
	.st2{fill-rule:evenodd;clip-rule:evenodd;fill:#7B9C41;}
	.st3{fill-rule:evenodd;clip-rule:evenodd;fill:#005121;}
	.st4{fill:#808285;}
</style>
<rect x="-132.5" y="-120.7" class="st0" width="709.2" height="470.2"/>
<g>
	<path class="st1" d="M294.7,3.5c-38.9,0-70.5,31.5-70.5,70.5v0h0v70.5h0c38.9,0,70.5-31.5,70.5-70.5v0h0L294.7,3.5L294.7,3.5z"/>
	<path class="st2" d="M146.3,3.5c38.9,0,70.5,31.5,70.5,70.5v0h0v70.5h0c-38.9,0-70.5-31.5-70.5-70.5v0h0L146.3,3.5L146.3,3.5z"/>
	<path class="st3" d="M11.8,166.5v-11.9H5.5v18.8h43.8v-18.8h-6.3v11.9H30.2v-9.5H24v9.5H11.8z M30.5,193.2v-7.8h18.8v-7H5.5v7h18.8
		v7.8H5.5v6.9h43.8v-6.9H30.5z M11.8,224.4v-7.2h37.6v-6.9H11.8v-7.2H5.5v21.3H11.8z"/>
	<path class="st3" d="M424.2,224.4h11.3l-15.3-38.7l15.3-31.1h-11L410.2,185v-30.4h-11v69.8h11V203l3.4-6.4L424.2,224.4z
		 M375.4,164.6c3.9,0,5.6,2.2,5.6,7.2v6.9c0,5.6-2.5,7.4-6.6,7.4h-4.3v-21.4H375.4z M393.2,224.4c-1.1-2.6-1.2-5.1-1.2-8.5v-10.8
		c0-7.3-1.8-12.6-7.3-14.9c4.9-2.3,7.2-7,7.2-14.2v-5.5c0-10.8-4.9-16.1-16.3-16.1h-16.5v69.8h11V196h3.8c5,0,7.2,2.4,7.2,8.9v11
		c0,5.7,0.4,6.8,1,8.6H393.2z M334.3,167l5.3,35.3H329L334.3,167z M342.9,154.6h-16.1l-11.2,69.8h10.1l1.9-12.7h13.5l1.9,12.7h11.1
		L342.9,154.6z M298.4,164.6c3.5,0,5.4,1.6,5.4,6.6v10.5c0,5-1.9,6.6-5.4,6.6h-5.2v-23.6H298.4z M298.4,154.6h-16.2v69.8h11v-26.2
		h5.2c11,0,16.3-6.1,16.3-17.2v-9.1C314.8,160.7,309.4,154.6,298.4,154.6z M247.7,224.4h11.3v-69.8h-9.8v41.8l-11.3-41.8h-13.8v69.8
		h9.9v-50.5L247.7,224.4z M199.4,167l5.3,35.3h-10.6L199.4,167z M208,154.6H192l-11.2,69.8h10.1l1.9-12.7h13.5l1.9,12.7h11.1
		L208,154.6z M159.5,164.6c3.9,0,5.6,2.2,5.6,7.2v3.9c0,5.6-2.5,7.4-6.6,7.4h-4.3v-18.4H159.5z M159.1,193c5,0,7.1,2,7.1,8.5v6.1
		c0,5.2-2,6.9-5.7,6.9h-6.3V193H159.1z M159.8,154.6h-16.5v69.8h17.2c11,0,16.6-5.8,16.6-16.5v-5.7c0-7.4-2.3-12.7-8.2-15
		c4.9-2.3,7.1-6.9,7.1-14.1v-2.5C176,159.9,171.1,154.6,159.8,154.6z M119.4,164.6c3.9,0,5.6,2.2,5.6,7.2v6.9c0,5.6-2.5,7.4-6.6,7.4
		h-4.3v-21.4H119.4z M137.2,224.4c-1.1-2.6-1.2-5.1-1.2-8.5v-10.8c0-7.3-1.8-12.6-7.3-14.9c4.9-2.3,7.2-7,7.2-14.2v-5.5
		c0-10.8-4.9-16.1-16.3-16.1h-16.5v69.8h11V196h3.8c5,0,7.2,2.4,7.2,8.9v11c0,5.7,0.4,6.8,1,8.6H137.2z M63,154.6v53.1
		c0,11.2,5.6,17.5,16.3,17.5c10.8,0,16.3-6.4,16.3-17.5v-53.1H85.3v53.8c0,5-2.2,6.8-5.7,6.8c-3.5,0-5.7-1.8-5.7-6.8v-53.8H63z"/>
	<path class="st4" d="M433.2,260.6c0.8,0,1.8-0.1,2.8-0.5v-1.6c-0.6,0.2-1.3,0.3-2,0.3c-1.4,0-2-0.5-2-1.8v-10.6h3.8V245H432v-4.3
		h-2v4.3h-2.5v1.5h2.5v11.1C430,260.1,431.7,260.6,433.2,260.6 M416.5,251.5v-1.6c0-1.8,0.9-3.8,3.3-3.8c2.6,0,3.4,1.9,3.4,3.6v1.8
		H416.5z M420.1,260.7c1.6,0,3.5-0.5,4.8-1.8l-0.9-1.2c-0.8,0.6-1.9,1.3-3.6,1.3c-2.6,0-4-1.2-4-3.9v-2.1h8.6v-3.2
		c0-3.4-1.8-5.4-5-5.4c-3.2,0-5.6,2-5.6,5.8v4.8C414.4,259.1,416.7,260.7,420.1,260.7z M403.7,260.7c2,0,3.8-1,4.7-3h0.1v2.7h2
		v-15.5h-2v10c0,2.4-1.9,4.2-3.8,4.2c-1.8,0-2.8-0.9-2.8-3v-11.2h-2V257C399.9,259.1,401.4,260.7,403.7,260.7z M389.7,259.1
		c-2,0-3-1.4-3-3.2v-6.5c0-2.2,1.2-3.3,3.1-3.3c1.9,0,3.6,1.6,3.6,4.2v4.2C393.4,257.1,391.5,259.1,389.7,259.1z M393.4,265.9h2v-21
		h-1.9v2.4h-0.1c-0.6-1.9-2.5-2.8-4.1-2.8c-2.5,0-4.7,1.6-4.7,4.7v7.1c0,2.5,1.6,4.3,4.4,4.3c1.5,0,3.1-0.7,4.3-2.9h0.1V265.9z
		 M370.2,260.4h2v-10c0-2.4,1.9-4.2,3.8-4.2c1.8,0,2.8,1,2.8,3.1v11.1h2v-12.1c0-2.1-1.5-3.7-3.9-3.7c-2,0-3.8,0.9-4.8,3h0v-2.6h-2
		V260.4z M360.2,259.2c-1.5,0-2.9-0.9-2.9-3c0-2.8,2.1-3.3,3.9-3.3h2.6v2.3C363.7,257.3,362.2,259.2,360.2,259.2z M359.4,260.7
		c1.4,0,3.5-0.4,4.5-2.7h0.1l0.1,2.3h1.9c0-0.8-0.2-2.8-0.2-3.9v-7.8c0-2.9-2.2-4.1-4.9-4.1c-2.9,0-5.2,1.3-5.2,4v0.9h1.9v-0.9
		c0-1.7,1.5-2.5,3.1-2.5c1.9,0,3.1,0.8,3.1,2.6v2.8h-2.9c-2.6,0-5.7,1.3-5.7,4.9C355.2,259.3,357.1,260.7,359.4,260.7z M341.5,248.4
		v-8.1h4.3c2.2,0,3.9,1.2,3.9,3.9c0,2.9-2.2,4.2-4.3,4.2H341.5z M341.5,258.6v-8.6h4c2.4,0,4.5,1.3,4.5,4.2c0,2.9-1.6,4.4-4,4.4
		H341.5z M339.4,260.4h7.1c3.1,0,5.7-1.9,5.7-5.9c0-2.6-1.4-4.8-4.2-5.3v-0.1c2.3-0.4,3.9-2.6,3.9-5.2c0-3.3-2-5.3-5.4-5.3h-7.1
		V260.4z M318.4,260.4h2.1v-21.7h-2.1V260.4z M292,251.5v-1.6c0-1.8,0.9-3.8,3.3-3.8c2.6,0,3.4,1.9,3.4,3.6v1.8H292z M295.6,260.7
		c1.6,0,3.5-0.5,4.8-1.8l-0.9-1.2c-0.8,0.6-1.9,1.3-3.6,1.3c-2.6,0-4-1.2-4-3.9v-2.1h8.6v-3.2c0-3.4-1.8-5.4-5-5.4
		c-3.2,0-5.6,2-5.6,5.8v4.8C289.9,259.1,292.2,260.7,295.6,260.7z M280.2,260.4h2v-9.8c0.1-2.9,2-4.1,4-4.1c0.3,0,0.9,0,1.4,0.1
		v-1.8c-0.3-0.1-0.7-0.1-1-0.1c-1.8,0-3.3,0.5-4.5,2.8h0v-2.7h-2V260.4z M274.3,260.6c0.8,0,1.8-0.1,2.8-0.5v-1.6
		c-0.6,0.2-1.3,0.3-2,0.3c-1.4,0-2-0.5-2-1.8v-10.6h3.8V245H273v-4.3h-2v4.3h-2.5v1.5h2.5v11.1C271,260.1,272.7,260.6,274.3,260.6z
		 M254.7,260.4h2v-10c0-2.4,1.9-4.2,3.8-4.2c1.8,0,2.8,1,2.8,3.1v11.1h2v-12.1c0-2.1-1.5-3.7-3.9-3.7c-2,0-3.8,0.9-4.8,3h0v-2.6h-2
		V260.4z M242.5,251.5v-1.6c0-1.8,0.9-3.8,3.3-3.8c2.6,0,3.4,1.9,3.4,3.6v1.8H242.5z M246.1,260.7c1.6,0,3.5-0.5,4.8-1.8l-0.9-1.2
		c-0.8,0.6-1.9,1.3-3.6,1.3c-2.6,0-4-1.2-4-3.9v-2.1h8.6v-3.2c0-3.4-1.8-5.4-5-5.4c-3.2,0-5.6,2-5.6,5.8v4.8
		C240.4,259.1,242.7,260.7,246.1,260.7z M230.8,260.7c3.9,0,6.5-2.2,6.5-5.6v-1.9h-1.9v1.7c0,2.3-1.7,3.9-4.6,3.9
		c-2.9,0-4.9-1.4-4.9-4.8v-9.3c0-2.7,1.7-4.7,4.8-4.7c3.1,0,4.7,1.8,4.7,4.1v1.5h1.9v-1.9c0-3.1-2.6-5.4-6.5-5.4
		c-4.1,0-7.1,2.5-7.1,6.4v9.7C223.7,258.6,226.7,260.7,230.8,260.7z M201.6,260.7c2.6,0,4.9-1.6,4.9-4.5c0-2-1-3.5-3.2-4.3l-2-0.8
		c-1.7-0.7-2.3-1.5-2.3-2.8c0-1.3,1.1-2.3,2.8-2.3c1.3,0,2.4,0.5,3.3,1.5l1.2-1.2c-0.9-1.1-2.6-1.8-4.3-1.8c-3.2,0-4.7,2.1-4.7,4.1
		c0,1.9,0.9,3.3,3.1,4.2l1.9,0.7c1.7,0.7,2.4,1.5,2.4,3.1c0,1.6-1.3,2.6-3,2.6s-2.8-0.8-3.8-2.1l-1.3,1.2
		C197.6,259.9,199.4,260.7,201.6,260.7z M189.7,260.7c2.6,0,4.9-1.6,4.9-4.5c0-2-1-3.5-3.2-4.3l-2-0.8c-1.7-0.7-2.3-1.5-2.3-2.8
		c0-1.3,1.1-2.3,2.8-2.3c1.3,0,2.4,0.5,3.3,1.5l1.2-1.2c-0.9-1.1-2.6-1.8-4.3-1.8c-3.2,0-4.7,2.1-4.7,4.1c0,1.9,0.9,3.3,3.1,4.2
		l1.9,0.7c1.7,0.7,2.4,1.5,2.4,3.1c0,1.6-1.3,2.6-3,2.6c-1.7,0-2.8-0.8-3.8-2.1l-1.3,1.2C185.6,259.9,187.5,260.7,189.7,260.7z
		 M174,251.5v-1.6c0-1.8,0.9-3.8,3.3-3.8c2.6,0,3.4,1.9,3.4,3.6v1.8H174z M177.6,260.7c1.6,0,3.5-0.5,4.8-1.8l-0.9-1.2
		c-0.8,0.6-1.9,1.3-3.6,1.3c-2.6,0-4-1.2-4-3.9v-2.1h8.6v-3.2c0-3.4-1.8-5.4-5-5.4c-3.2,0-5.6,2-5.6,5.8v4.8
		C171.9,259.1,174.2,260.7,177.6,260.7z M157.5,260.4h2v-10c0-2.4,1.9-4.2,3.8-4.2c1.8,0,2.8,1,2.8,3.1v11.1h2v-12.1
		c0-2.1-1.5-3.7-3.9-3.7c-2,0-3.8,0.9-4.8,3h0v-2.6h-2V260.4z M150.9,241.5h2v-3h-2V241.5z M150.9,260.4h2v-15.5h-2V260.4z
		 M142.5,260.7c2.6,0,4.9-1.6,4.9-4.5c0-2-1-3.5-3.2-4.3l-2-0.8c-1.7-0.7-2.3-1.5-2.3-2.8c0-1.3,1.1-2.3,2.8-2.3
		c1.3,0,2.4,0.5,3.3,1.5l1.2-1.2c-0.9-1.1-2.6-1.8-4.3-1.8c-3.2,0-4.7,2.1-4.7,4.1c0,1.9,0.9,3.3,3.1,4.2l1.9,0.7
		c1.7,0.7,2.4,1.5,2.4,3.1c0,1.6-1.3,2.6-3,2.6s-2.8-0.8-3.8-2.1l-1.3,1.2C138.5,259.9,140.3,260.7,142.5,260.7z M127.7,260.7
		c2,0,3.8-1,4.7-3h0.1v2.7h2v-15.5h-2v10c0,2.4-1.9,4.2-3.8,4.2c-1.8,0-2.8-0.9-2.8-3v-11.2h-2V257
		C123.8,259.1,125.3,260.7,127.7,260.7z M109.3,248.4v-8.1h4.3c2.2,0,3.9,1.2,3.9,3.9c0,2.9-2.2,4.2-4.3,4.2H109.3z M109.3,258.6
		v-8.6h4c2.4,0,4.5,1.3,4.5,4.2c0,2.9-1.6,4.4-4,4.4H109.3z M107.2,260.4h7.1c3.1,0,5.7-1.9,5.7-5.9c0-2.6-1.4-4.8-4.2-5.3v-0.1
		c2.3-0.4,3.9-2.6,3.9-5.2c0-3.3-2-5.3-5.4-5.3h-7.1V260.4z M86.2,260.4h2.1v-21.7h-2.1V260.4z M66.7,260.5c0.6,0,1.3-0.1,2-0.3
		v-1.6c-0.4,0.1-0.9,0.1-1.3,0.1c-1.3,0-1.9-0.8-1.9-1.8v-18.3h-2v18.7C63.5,259.4,64.7,260.5,66.7,260.5z M51.3,251.5v-1.6
		c0-1.8,0.9-3.8,3.3-3.8c2.6,0,3.4,1.9,3.4,3.6v1.8H51.3z M54.9,260.7c1.6,0,3.5-0.5,4.8-1.8l-0.9-1.2c-0.8,0.6-1.9,1.3-3.6,1.3
		c-2.6,0-4-1.2-4-3.9v-2.1h8.6v-3.2c0-3.4-1.8-5.4-5-5.4c-3.2,0-5.6,2-5.6,5.8v4.8C49.3,259.1,51.5,260.7,54.9,260.7z M44,260.6
		c0.8,0,1.8-0.1,2.8-0.5v-1.6c-0.6,0.2-1.3,0.3-2,0.3c-1.4,0-2-0.5-2-1.8v-10.6h3.8V245h-3.8v-4.3h-2v4.3h-2.5v1.5h2.5v11.1
		C40.7,260.1,42.4,260.6,44,260.6z M30.1,259.1c-2.5,0-3.5-1.7-3.5-4v-5.1c0-2.2,0.9-4,3.4-4c2.5,0,3.5,1.7,3.5,3.9v5.2
		C33.5,257.3,32.7,259.1,30.1,259.1z M30.1,260.7c3.2,0,5.5-1.9,5.5-5.7v-5c0-3.6-2.2-5.5-5.5-5.5c-3.2,0-5.5,2-5.5,5.6v5
		C24.6,258.8,26.8,260.7,30.1,260.7z M6.9,260.4H9v-10.3h9.5v10.3h2.1v-21.7h-2.1v9.5H9v-9.5H6.9V260.4z"/>
</g>
</svg>
